<?xml version="1.0" encoding="UTF-8" standalone="no"?>
<!DOCTYPE svg PUBLIC "-//W3C//DTD SVG 1.1//EN"
 "http://www.w3.org/Graphics/SVG/1.1/DTD/svg11.dtd">
<!-- Generated by graphviz version 8.0.5 (0)
 -->
<!-- Pages: 1 -->
<svg width="702pt" height="332pt"
 viewBox="0.00 0.00 702.34 332.00" xmlns="http://www.w3.org/2000/svg" xmlns:xlink="http://www.w3.org/1999/xlink">
<g id="graph0" class="graph" transform="scale(1 1) rotate(0) translate(4 328)">
<polygon fill="white" stroke="none" points="-4,4 -4,-328 698.34,-328 698.34,4 -4,4"/>
<!-- 0 -->
<g id="node1" class="node">
<title>0</title>
<polygon fill="none" stroke="black" points="362.56,-180 264.81,-180 264.81,-144 362.56,-144 362.56,-180"/>
<text text-anchor="middle" x="313.68" y="-157.32" font-family="Times,serif" font-size="14.00">pa&#45;wrapper</text>
</g>
<!-- 3 -->
<g id="node4" class="node">
<title>3</title>
<ellipse fill="none" stroke="black" stroke-dasharray="5,2" cx="498.68" cy="-90" rx="49.1" ry="18"/>
<text text-anchor="middle" x="498.68" y="-85.33" font-family="Times,serif" font-size="14.00">astarpa</text>
</g>
<!-- 0&#45;&gt;3 -->
<g id="edge1" class="edge">
<title>0&#45;&gt;3</title>
<path fill="none" stroke="black" stroke-dasharray="1,5" d="M359.89,-143.52C389.06,-132.48 426.5,-118.31 455.14,-107.48"/>
<polygon fill="black" stroke="black" points="456.15,-110.46 464.26,-103.65 453.67,-103.91 456.15,-110.46"/>
</g>
<!-- 4 -->
<g id="node5" class="node">
<title>4</title>
<ellipse fill="none" stroke="black" cx="50.68" cy="-90" rx="50.68" ry="18"/>
<text text-anchor="middle" x="50.68" y="-85.33" font-family="Times,serif" font-size="14.00">edlib_rs</text>
</g>
<!-- 0&#45;&gt;4 -->
<g id="edge2" class="edge">
<title>0&#45;&gt;4</title>
<path fill="none" stroke="black" stroke-dasharray="1,5" d="M264.38,-148.43C223.23,-137.87 163.05,-122.25 110.68,-108 107.13,-107.03 103.46,-106.02 99.76,-105"/>
<polygon fill="black" stroke="black" points="100.95,-101.41 90.38,-102.09 99.07,-108.16 100.95,-101.41"/>
</g>
<!-- 5 -->
<g id="node6" class="node">
<title>5</title>
<ellipse fill="none" stroke="black" stroke-dasharray="5,2" cx="622.68" cy="-90" rx="56.47" ry="18"/>
<text text-anchor="middle" x="622.68" y="-85.33" font-family="Times,serif" font-size="14.00">ksw2&#45;sys</text>
</g>
<!-- 0&#45;&gt;5 -->
<g id="edge3" class="edge">
<title>0&#45;&gt;5</title>
<path fill="none" stroke="black" stroke-dasharray="1,5" d="M362.67,-150.88C411.84,-140.58 489.68,-123.93 556.68,-108 560.96,-106.98 565.38,-105.91 569.82,-104.8"/>
<polygon fill="black" stroke="black" points="570.29,-108.04 579.14,-102.21 568.58,-101.25 570.29,-108.04"/>
</g>
<!-- 6 -->
<g id="node7" class="node">
<title>6</title>
<ellipse fill="none" stroke="black" cx="498.68" cy="-18" rx="53.84" ry="18"/>
<text text-anchor="middle" x="498.68" y="-13.32" font-family="Times,serif" font-size="14.00">pa&#45;types</text>
</g>
<!-- 0&#45;&gt;6 -->
<g id="edge4" class="edge">
<title>0&#45;&gt;6</title>
<path fill="none" stroke="black" d="M299.28,-143.61C285.19,-124.36 268.06,-93.24 284.68,-72 303.38,-48.11 380.99,-33.48 437.37,-25.81"/>
<polygon fill="black" stroke="black" points="437.53,-29.19 446.99,-24.41 436.62,-22.25 437.53,-29.19"/>
</g>
<!-- 7 -->
<g id="node8" class="node">
<title>7</title>
<ellipse fill="none" stroke="black" stroke-dasharray="5,2" cx="178.68" cy="-90" rx="59.1" ry="18"/>
<text text-anchor="middle" x="178.68" y="-85.33" font-family="Times,serif" font-size="14.00">rust&#45;wfa2</text>
</g>
<!-- 0&#45;&gt;7 -->
<g id="edge5" class="edge">
<title>0&#45;&gt;7</title>
<path fill="none" stroke="black" stroke-dasharray="1,5" d="M279.96,-143.52C260.99,-133.68 237.22,-121.35 217.47,-111.11"/>
<polygon fill="black" stroke="black" points="219.34,-107.62 208.85,-106.13 216.12,-113.84 219.34,-107.62"/>
</g>
<!-- 8 -->
<g id="node9" class="node">
<title>8</title>
<ellipse fill="none" stroke="black" stroke-dasharray="5,2" cx="362.68" cy="-90" rx="68.57" ry="18"/>
<text text-anchor="middle" x="362.68" y="-85.33" font-family="Times,serif" font-size="14.00">triple_accel</text>
</g>
<!-- 0&#45;&gt;8 -->
<g id="edge6" class="edge">
<title>0&#45;&gt;8</title>
<path fill="none" stroke="black" stroke-dasharray="1,5" d="M325.79,-143.7C331.43,-135.64 338.26,-125.89 344.49,-116.98"/>
<polygon fill="black" stroke="black" points="347.84,-119.3 350.71,-109.1 342.11,-115.29 347.84,-119.3"/>
</g>
<!-- 1 -->
<g id="node2" class="node">
<title>1</title>
<polygon fill="none" stroke="black" points="375.68,-252 251.68,-252 251.68,-216 375.68,-216 375.68,-252"/>
<text text-anchor="middle" x="313.68" y="-229.32" font-family="Times,serif" font-size="14.00">pa&#45;bench&#45;types</text>
</g>
<!-- 1&#45;&gt;0 -->
<g id="edge9" class="edge">
<title>1&#45;&gt;0</title>
<path fill="none" stroke="black" d="M313.68,-215.7C313.68,-208.24 313.68,-199.32 313.68,-190.97"/>
<polygon fill="black" stroke="black" points="317.18,-191.1 313.68,-181.1 310.18,-191.1 317.18,-191.1"/>
</g>
<!-- 1&#45;&gt;4 -->
<g id="edge7" class="edge">
<title>1&#45;&gt;4</title>
<path fill="none" stroke="black" d="M281.43,-215.59C232.21,-189.01 138.62,-138.48 87.05,-110.63"/>
<polygon fill="black" stroke="black" points="89.08,-107.22 78.62,-105.55 85.76,-113.38 89.08,-107.22"/>
</g>
<!-- 9 -->
<g id="node10" class="node">
<title>9</title>
<ellipse fill="none" stroke="black" cx="602.68" cy="-162" rx="71.2" ry="18"/>
<text text-anchor="middle" x="602.68" y="-157.32" font-family="Times,serif" font-size="14.00">pa&#45;generate</text>
</g>
<!-- 1&#45;&gt;9 -->
<g id="edge8" class="edge">
<title>1&#45;&gt;9</title>
<path fill="none" stroke="black" d="M376.03,-217.9C425.19,-205.99 493.35,-189.48 542.06,-177.68"/>
<polygon fill="black" stroke="black" points="542.55,-180.92 551.45,-175.17 540.91,-174.12 542.55,-180.92"/>
</g>
<!-- 2 -->
<g id="node3" class="node">
<title>2</title>
<polygon fill="none" stroke="black" points="353.93,-324 273.43,-324 273.43,-288 353.93,-288 353.93,-324"/>
<text text-anchor="middle" x="313.68" y="-301.32" font-family="Times,serif" font-size="14.00">pa&#45;bench</text>
</g>
<!-- 2&#45;&gt;1 -->
<g id="edge10" class="edge">
<title>2&#45;&gt;1</title>
<path fill="none" stroke="black" d="M313.68,-287.7C313.68,-280.24 313.68,-271.32 313.68,-262.97"/>
<polygon fill="black" stroke="black" points="317.18,-263.1 313.68,-253.1 310.18,-263.1 317.18,-263.1"/>
</g>
<!-- 3&#45;&gt;6 -->
<g id="edge11" class="edge">
<title>3&#45;&gt;6</title>
<path fill="none" stroke="black" stroke-dasharray="5,2" d="M498.68,-71.7C498.68,-64.24 498.68,-55.32 498.68,-46.97"/>
<polygon fill="black" stroke="black" points="502.18,-47.1 498.68,-37.1 495.18,-47.1 502.18,-47.1"/>
</g>
<!-- 10 -->
<g id="node11" class="node">
<title>10</title>
<ellipse fill="none" stroke="black" stroke-dasharray="5,2" cx="178.68" cy="-18" rx="54.89" ry="18"/>
<text text-anchor="middle" x="178.68" y="-13.32" font-family="Times,serif" font-size="14.00">wfa2&#45;sys</text>
</g>
<!-- 7&#45;&gt;10 -->
<g id="edge12" class="edge">
<title>7&#45;&gt;10</title>
<path fill="none" stroke="black" stroke-dasharray="5,2" d="M178.68,-71.7C178.68,-64.24 178.68,-55.32 178.68,-46.97"/>
<polygon fill="black" stroke="black" points="182.18,-47.1 178.68,-37.1 175.18,-47.1 182.18,-47.1"/>
</g>
<!-- 9&#45;&gt;6 -->
<g id="edge13" class="edge">
<title>9&#45;&gt;6</title>
<path fill="none" stroke="black" d="M642.36,-146.61C659.52,-138.17 677.89,-125.64 687.68,-108 695.45,-94.01 697.35,-84.75 687.68,-72 671.91,-51.19 607.28,-36.3 557.95,-27.7"/>
<polygon fill="black" stroke="black" points="558.81,-24.13 548.37,-25.91 557.64,-31.03 558.81,-24.13"/>
</g>
</g>
</svg>
