<?xml version="1.0" encoding="UTF-8" standalone="no"?>
<!DOCTYPE svg PUBLIC "-//W3C//DTD SVG 1.1//EN"
 "http://www.w3.org/Graphics/SVG/1.1/DTD/svg11.dtd">
<!-- Generated by graphviz version 8.0.5 (0)
 -->
<!-- Pages: 1 -->
<svg width="939pt" height="332pt"
 viewBox="0.00 0.00 938.67 332.00" xmlns="http://www.w3.org/2000/svg" xmlns:xlink="http://www.w3.org/1999/xlink">
<g id="graph0" class="graph" transform="scale(1 1) rotate(0) translate(4 328)">
<polygon fill="white" stroke="none" points="-4,4 -4,-328 934.67,-328 934.67,4 -4,4"/>
<!-- 0 -->
<g id="node1" class="node">
<title>0</title>
<polygon fill="none" stroke="black" points="585.34,-180 487.59,-180 487.59,-144 585.34,-144 585.34,-180"/>
<text text-anchor="middle" x="536.47" y="-157.32" font-family="Times,serif" font-size="14.00">pa&#45;wrapper</text>
</g>
<!-- 4 -->
<g id="node5" class="node">
<title>4</title>
<ellipse fill="none" stroke="black" stroke-dasharray="5,2" cx="662.47" cy="-90" rx="49.1" ry="18"/>
<text text-anchor="middle" x="662.47" y="-85.33" font-family="Times,serif" font-size="14.00">astarpa</text>
</g>
<!-- 0&#45;&gt;4 -->
<g id="edge1" class="edge">
<title>0&#45;&gt;4</title>
<path fill="none" stroke="black" stroke-dasharray="1,5" d="M567.94,-143.52C585.86,-133.56 608.36,-121.06 626.92,-110.75"/>
<polygon fill="black" stroke="black" points="628.45,-113.35 635.49,-105.43 625.05,-107.23 628.45,-113.35"/>
</g>
<!-- 5 -->
<g id="node6" class="node">
<title>5</title>
<ellipse fill="none" stroke="black" cx="780.47" cy="-90" rx="50.68" ry="18"/>
<text text-anchor="middle" x="780.47" y="-85.33" font-family="Times,serif" font-size="14.00">edlib_rs</text>
</g>
<!-- 0&#45;&gt;5 -->
<g id="edge2" class="edge">
<title>0&#45;&gt;5</title>
<path fill="none" stroke="black" stroke-dasharray="1,5" d="M585.55,-146.92C628.02,-134.74 689.1,-117.21 731.52,-105.04"/>
<polygon fill="black" stroke="black" points="732.24,-108.19 740.88,-102.07 730.31,-101.46 732.24,-108.19"/>
</g>
<!-- 6 -->
<g id="node7" class="node">
<title>6</title>
<ellipse fill="none" stroke="black" stroke-dasharray="5,2" cx="56.47" cy="-90" rx="56.47" ry="18"/>
<text text-anchor="middle" x="56.47" y="-85.33" font-family="Times,serif" font-size="14.00">ksw2&#45;sys</text>
</g>
<!-- 0&#45;&gt;6 -->
<g id="edge3" class="edge">
<title>0&#45;&gt;6</title>
<path fill="none" stroke="black" stroke-dasharray="1,5" d="M487.4,-156.72C409.57,-149.48 253.23,-133.11 122.47,-108 118.02,-107.15 113.43,-106.17 108.84,-105.12"/>
<polygon fill="black" stroke="black" points="109.73,-101.5 99.19,-102.58 108.11,-108.31 109.73,-101.5"/>
</g>
<!-- 7 -->
<g id="node8" class="node">
<title>7</title>
<ellipse fill="none" stroke="black" cx="662.47" cy="-18" rx="53.84" ry="18"/>
<text text-anchor="middle" x="662.47" y="-13.32" font-family="Times,serif" font-size="14.00">pa&#45;types</text>
</g>
<!-- 0&#45;&gt;7 -->
<g id="edge4" class="edge">
<title>0&#45;&gt;7</title>
<path fill="none" stroke="black" d="M548.4,-143.55C561.35,-125.07 583.06,-95.38 604.47,-72 613.9,-61.7 625.06,-51.17 635.06,-42.23"/>
<polygon fill="black" stroke="black" points="636.92,-44.37 642.12,-35.14 632.3,-39.12 636.92,-44.37"/>
</g>
<!-- 8 -->
<g id="node9" class="node">
<title>8</title>
<ellipse fill="none" stroke="black" stroke-dasharray="5,2" cx="334.47" cy="-90" rx="66.99" ry="18"/>
<text text-anchor="middle" x="334.47" y="-85.33" font-family="Times,serif" font-size="14.00">parasailors</text>
</g>
<!-- 0&#45;&gt;8 -->
<g id="edge5" class="edge">
<title>0&#45;&gt;8</title>
<path fill="none" stroke="black" stroke-dasharray="1,5" d="M487.31,-143.97C456.15,-133.17 415.96,-119.24 384.61,-108.37"/>
<polygon fill="black" stroke="black" points="385.94,-104.78 375.34,-104.82 383.64,-111.4 385.94,-104.78"/>
</g>
<!-- 9 -->
<g id="node10" class="node">
<title>9</title>
<ellipse fill="none" stroke="black" stroke-dasharray="5,2" cx="190.47" cy="-90" rx="59.1" ry="18"/>
<text text-anchor="middle" x="190.47" y="-85.33" font-family="Times,serif" font-size="14.00">rust&#45;wfa2</text>
</g>
<!-- 0&#45;&gt;9 -->
<g id="edge6" class="edge">
<title>0&#45;&gt;9</title>
<path fill="none" stroke="black" stroke-dasharray="1,5" d="M487.34,-152.5C431.65,-142.67 338.24,-125.56 258.47,-108 254.06,-107.03 249.49,-105.98 244.92,-104.9"/>
<polygon fill="black" stroke="black" points="245.82,-101.28 235.28,-102.34 244.18,-108.08 245.82,-101.28"/>
</g>
<!-- 10 -->
<g id="node11" class="node">
<title>10</title>
<ellipse fill="none" stroke="black" stroke-dasharray="5,2" cx="488.47" cy="-90" rx="68.57" ry="18"/>
<text text-anchor="middle" x="488.47" y="-85.33" font-family="Times,serif" font-size="14.00">triple_accel</text>
</g>
<!-- 0&#45;&gt;10 -->
<g id="edge7" class="edge">
<title>0&#45;&gt;10</title>
<path fill="none" stroke="black" stroke-dasharray="1,5" d="M524.6,-143.7C519.08,-135.64 512.4,-125.89 506.29,-116.98"/>
<polygon fill="black" stroke="black" points="508.74,-115.37 500.2,-109.1 502.97,-119.33 508.74,-115.37"/>
</g>
<!-- 1 -->
<g id="node2" class="node">
<title>1</title>
<polygon fill="none" stroke="black" points="566.59,-252 506.34,-252 506.34,-216 566.59,-216 566.59,-252"/>
<text text-anchor="middle" x="536.47" y="-229.32" font-family="Times,serif" font-size="14.00">pa&#45;bin</text>
</g>
<!-- 1&#45;&gt;0 -->
<g id="edge8" class="edge">
<title>1&#45;&gt;0</title>
<path fill="none" stroke="black" d="M536.47,-215.7C536.47,-208.24 536.47,-199.32 536.47,-190.97"/>
<polygon fill="black" stroke="black" points="539.97,-191.1 536.47,-181.1 532.97,-191.1 539.97,-191.1"/>
</g>
<!-- 2 -->
<g id="node3" class="node">
<title>2</title>
<polygon fill="none" stroke="black" points="822.47,-252 698.47,-252 698.47,-216 822.47,-216 822.47,-252"/>
<text text-anchor="middle" x="760.47" y="-229.32" font-family="Times,serif" font-size="14.00">pa&#45;bench&#45;types</text>
</g>
<!-- 2&#45;&gt;0 -->
<g id="edge11" class="edge">
<title>2&#45;&gt;0</title>
<path fill="none" stroke="black" d="M704.52,-215.52C671.41,-205.17 629.48,-192.07 595.79,-181.54"/>
<polygon fill="black" stroke="black" points="597.2,-178 586.62,-178.36 595.12,-184.68 597.2,-178"/>
</g>
<!-- 2&#45;&gt;5 -->
<g id="edge9" class="edge">
<title>2&#45;&gt;5</title>
<path fill="none" stroke="black" d="M762.92,-215.59C766.33,-191.4 772.53,-147.36 776.57,-118.65"/>
<polygon fill="black" stroke="black" points="780.13,-119.5 778.06,-109.11 773.2,-118.52 780.13,-119.5"/>
</g>
<!-- 11 -->
<g id="node12" class="node">
<title>11</title>
<ellipse fill="none" stroke="black" cx="859.47" cy="-162" rx="71.2" ry="18"/>
<text text-anchor="middle" x="859.47" y="-157.32" font-family="Times,serif" font-size="14.00">pa&#45;generate</text>
</g>
<!-- 2&#45;&gt;11 -->
<g id="edge10" class="edge">
<title>2&#45;&gt;11</title>
<path fill="none" stroke="black" d="M785.2,-215.52C798.07,-206.41 813.95,-195.18 827.72,-185.45"/>
<polygon fill="black" stroke="black" points="829.27,-187.93 835.42,-179.3 825.23,-182.22 829.27,-187.93"/>
</g>
<!-- 3 -->
<g id="node4" class="node">
<title>3</title>
<polygon fill="none" stroke="black" points="800.72,-324 720.22,-324 720.22,-288 800.72,-288 800.72,-324"/>
<text text-anchor="middle" x="760.47" y="-301.32" font-family="Times,serif" font-size="14.00">pa&#45;bench</text>
</g>
<!-- 3&#45;&gt;2 -->
<g id="edge12" class="edge">
<title>3&#45;&gt;2</title>
<path fill="none" stroke="black" d="M760.47,-287.7C760.47,-280.24 760.47,-271.32 760.47,-262.97"/>
<polygon fill="black" stroke="black" points="763.97,-263.1 760.47,-253.1 756.97,-263.1 763.97,-263.1"/>
</g>
<!-- 4&#45;&gt;7 -->
<g id="edge13" class="edge">
<title>4&#45;&gt;7</title>
<path fill="none" stroke="black" stroke-dasharray="5,2" d="M662.47,-71.7C662.47,-64.24 662.47,-55.32 662.47,-46.97"/>
<polygon fill="black" stroke="black" points="665.97,-47.1 662.47,-37.1 658.97,-47.1 665.97,-47.1"/>
</g>
<!-- 12 -->
<g id="node13" class="node">
<title>12</title>
<ellipse fill="none" stroke="black" stroke-dasharray="5,2" cx="190.47" cy="-18" rx="54.89" ry="18"/>
<text text-anchor="middle" x="190.47" y="-13.32" font-family="Times,serif" font-size="14.00">wfa2&#45;sys</text>
</g>
<!-- 9&#45;&gt;12 -->
<g id="edge14" class="edge">
<title>9&#45;&gt;12</title>
<path fill="none" stroke="black" stroke-dasharray="5,2" d="M190.47,-71.7C190.47,-64.24 190.47,-55.32 190.47,-46.97"/>
<polygon fill="black" stroke="black" points="193.97,-47.1 190.47,-37.1 186.97,-47.1 193.97,-47.1"/>
</g>
<!-- 11&#45;&gt;7 -->
<g id="edge15" class="edge">
<title>11&#45;&gt;7</title>
<path fill="none" stroke="black" d="M860.66,-143.59C861.04,-123.73 858.48,-91.5 840.47,-72 811.47,-40.61 764.79,-27.52 726.5,-22.19"/>
<polygon fill="black" stroke="black" points="727.3,-18.64 716.95,-20.88 726.44,-25.58 727.3,-18.64"/>
</g>
</g>
</svg>
