<?xml version="1.0" encoding="UTF-8" standalone="no"?>
<!DOCTYPE svg PUBLIC "-//W3C//DTD SVG 1.1//EN"
 "http://www.w3.org/Graphics/SVG/1.1/DTD/svg11.dtd">
<!-- Generated by graphviz version 7.1.0 (0)
 -->
<!-- Pages: 1 -->
<svg width="706pt" height="260pt"
 viewBox="0.00 0.00 705.84 260.00" xmlns="http://www.w3.org/2000/svg" xmlns:xlink="http://www.w3.org/1999/xlink">
<g id="graph0" class="graph" transform="scale(1 1) rotate(0) translate(4 256)">
<polygon fill="white" stroke="none" points="-4,4 -4,-256 701.84,-256 701.84,4 -4,4"/>
<!-- 0 -->
<g id="node1" class="node">
<title>0</title>
<polygon fill="none" stroke="black" points="286.65,-180 161.65,-180 161.65,-144 286.65,-144 286.65,-180"/>
<text text-anchor="middle" x="224.15" y="-158.3" font-family="Times,serif" font-size="14.00">pa&#45;bench&#45;types</text>
</g>
<!-- 3 -->
<g id="node4" class="node">
<title>3</title>
<ellipse fill="none" stroke="black" cx="46.15" cy="-90" rx="46.29" ry="18"/>
<text text-anchor="middle" x="46.15" y="-86.3" font-family="Times,serif" font-size="14.00">astarpa</text>
</g>
<!-- 0&#45;&gt;3 -->
<g id="edge1" class="edge">
<title>0&#45;&gt;3</title>
<path fill="none" stroke="black" d="M179.69,-143.52C151.78,-132.54 116,-118.47 88.5,-107.66"/>
<polygon fill="black" stroke="black" points="90.02,-104.49 79.43,-104.09 87.46,-111.01 90.02,-104.49"/>
</g>
<!-- 4 -->
<g id="node5" class="node">
<title>4</title>
<ellipse fill="none" stroke="black" cx="158.15" cy="-90" rx="47.39" ry="18"/>
<text text-anchor="middle" x="158.15" y="-86.3" font-family="Times,serif" font-size="14.00">edlib_rs</text>
</g>
<!-- 0&#45;&gt;4 -->
<g id="edge2" class="edge">
<title>0&#45;&gt;4</title>
<path fill="none" stroke="black" d="M207.83,-143.7C199.76,-135.14 189.89,-124.67 181.08,-115.33"/>
<polygon fill="black" stroke="black" points="183.81,-113.12 174.41,-108.25 178.72,-117.92 183.81,-113.12"/>
</g>
<!-- 5 -->
<g id="node6" class="node">
<title>5</title>
<ellipse fill="none" stroke="black" cx="290.15" cy="-90" rx="66.09" ry="18"/>
<text text-anchor="middle" x="290.15" y="-86.3" font-family="Times,serif" font-size="14.00">pa&#45;generate</text>
</g>
<!-- 0&#45;&gt;5 -->
<g id="edge3" class="edge">
<title>0&#45;&gt;5</title>
<path fill="none" stroke="black" d="M240.46,-143.7C248.41,-135.27 258.11,-124.97 266.83,-115.73"/>
<polygon fill="black" stroke="black" points="269.12,-118.4 273.44,-108.72 264.03,-113.6 269.12,-118.4"/>
</g>
<!-- 7 -->
<g id="node8" class="node">
<title>7</title>
<ellipse fill="none" stroke="black" cx="430.15" cy="-90" rx="55.49" ry="18"/>
<text text-anchor="middle" x="430.15" y="-86.3" font-family="Times,serif" font-size="14.00">rust&#45;wfa2</text>
</g>
<!-- 0&#45;&gt;7 -->
<g id="edge4" class="edge">
<title>0&#45;&gt;7</title>
<path fill="none" stroke="black" d="M275.6,-143.52C308.22,-132.43 350.13,-118.19 382.08,-107.33"/>
<polygon fill="black" stroke="black" points="383.16,-110.66 391.5,-104.13 380.9,-104.04 383.16,-110.66"/>
</g>
<!-- 1 -->
<g id="node2" class="node">
<title>1</title>
<polygon fill="none" stroke="black" points="455.65,-252 390.65,-252 390.65,-216 455.65,-216 455.65,-252"/>
<text text-anchor="middle" x="423.15" y="-230.3" font-family="Times,serif" font-size="14.00">runner</text>
</g>
<!-- 1&#45;&gt;0 -->
<g id="edge6" class="edge">
<title>1&#45;&gt;0</title>
<path fill="none" stroke="black" d="M390.29,-221.44C361.57,-211.34 319.16,-196.42 284.37,-184.18"/>
<polygon fill="black" stroke="black" points="285.87,-181 275.27,-180.98 283.54,-187.6 285.87,-181"/>
</g>
<!-- 8 -->
<g id="node9" class="node">
<title>8</title>
<ellipse fill="none" stroke="black" cx="357.15" cy="-162" rx="52.79" ry="18"/>
<text text-anchor="middle" x="357.15" y="-158.3" font-family="Times,serif" font-size="14.00">ksw2&#45;sys</text>
</g>
<!-- 1&#45;&gt;8 -->
<g id="edge5" class="edge">
<title>1&#45;&gt;8</title>
<path fill="none" stroke="black" d="M406.83,-215.7C398.88,-207.27 389.18,-196.97 380.46,-187.73"/>
<polygon fill="black" stroke="black" points="383.26,-185.6 373.86,-180.72 378.17,-190.4 383.26,-185.6"/>
</g>
<!-- 9 -->
<g id="node10" class="node">
<title>9</title>
<ellipse fill="none" stroke="black" stroke-dasharray="5,2" cx="490.15" cy="-162" rx="62.29" ry="18"/>
<text text-anchor="middle" x="490.15" y="-158.3" font-family="Times,serif" font-size="14.00">parasailors</text>
</g>
<!-- 1&#45;&gt;9 -->
<g id="edge7" class="edge">
<title>1&#45;&gt;9</title>
<path fill="none" stroke="black" stroke-dasharray="1,5" d="M439.71,-215.7C447.78,-207.27 457.63,-196.97 466.47,-187.73"/>
<polygon fill="black" stroke="black" points="468.8,-190.36 473.19,-180.72 463.75,-185.52 468.8,-190.36"/>
</g>
<!-- 10 -->
<g id="node11" class="node">
<title>10</title>
<ellipse fill="none" stroke="black" cx="634.15" cy="-162" rx="63.89" ry="18"/>
<text text-anchor="middle" x="634.15" y="-158.3" font-family="Times,serif" font-size="14.00">triple_accel</text>
</g>
<!-- 1&#45;&gt;10 -->
<g id="edge8" class="edge">
<title>1&#45;&gt;10</title>
<path fill="none" stroke="black" d="M456.11,-222.06C490.12,-210.78 543.62,-193.03 583.1,-179.93"/>
<polygon fill="black" stroke="black" points="584.01,-183.32 592.4,-176.85 581.81,-176.68 584.01,-183.32"/>
</g>
<!-- 2 -->
<g id="node3" class="node">
<title>2</title>
<polygon fill="none" stroke="black" points="277.15,-252 171.15,-252 171.15,-216 277.15,-216 277.15,-252"/>
<text text-anchor="middle" x="224.15" y="-230.3" font-family="Times,serif" font-size="14.00">orchestrator</text>
</g>
<!-- 2&#45;&gt;0 -->
<g id="edge9" class="edge">
<title>2&#45;&gt;0</title>
<path fill="none" stroke="black" d="M224.15,-215.7C224.15,-208.41 224.15,-199.73 224.15,-191.54"/>
<polygon fill="black" stroke="black" points="227.65,-191.62 224.15,-181.62 220.65,-191.62 227.65,-191.62"/>
</g>
<!-- 6 -->
<g id="node7" class="node">
<title>6</title>
<ellipse fill="none" stroke="black" cx="168.15" cy="-18" rx="50.09" ry="18"/>
<text text-anchor="middle" x="168.15" y="-14.3" font-family="Times,serif" font-size="14.00">pa&#45;types</text>
</g>
<!-- 3&#45;&gt;6 -->
<g id="edge10" class="edge">
<title>3&#45;&gt;6</title>
<path fill="none" stroke="black" d="M71.42,-74.5C89.14,-64.33 113.05,-50.61 132.67,-39.36"/>
<polygon fill="black" stroke="black" points="134.24,-42.49 141.17,-34.48 130.75,-36.42 134.24,-42.49"/>
</g>
<!-- 5&#45;&gt;6 -->
<g id="edge11" class="edge">
<title>5&#45;&gt;6</title>
<path fill="none" stroke="black" d="M262.77,-73.29C245.26,-63.25 222.38,-50.12 203.5,-39.29"/>
<polygon fill="black" stroke="black" points="205.49,-36.39 195.08,-34.45 202.01,-42.47 205.49,-36.39"/>
</g>
<!-- 11 -->
<g id="node12" class="node">
<title>11</title>
<ellipse fill="none" stroke="black" cx="430.15" cy="-18" rx="51.19" ry="18"/>
<text text-anchor="middle" x="430.15" y="-14.3" font-family="Times,serif" font-size="14.00">wfa2&#45;sys</text>
</g>
<!-- 7&#45;&gt;11 -->
<g id="edge12" class="edge">
<title>7&#45;&gt;11</title>
<path fill="none" stroke="black" d="M430.15,-71.7C430.15,-64.41 430.15,-55.73 430.15,-47.54"/>
<polygon fill="black" stroke="black" points="433.65,-47.62 430.15,-37.62 426.65,-47.62 433.65,-47.62"/>
</g>
</g>
</svg>
